<mxfile host="app.diagrams.net" modified="2023-12-23T15:59:21.788Z" agent="Mozilla/5.0 (Windows NT 10.0; Win64; x64; rv:121.0) Gecko/20100101 Firefox/121.0" etag="DtLsFn5L1f7A7D_RqKWd" version="22.1.11" type="github">
  <diagram name="Page-1" id="OMOO0wik2GhvrRnTk124">
    <mxGraphModel dx="1877" dy="944" grid="0" gridSize="10" guides="1" tooltips="1" connect="1" arrows="1" fold="1" page="1" pageScale="1" pageWidth="850" pageHeight="1100" math="0" shadow="0">
      <root>
        <mxCell id="0" />
        <mxCell id="1" parent="0" />
        <mxCell id="DPH3KcnIoQbrQOLIOBWx-18" value="User" style="swimlane;fontStyle=1;align=center;verticalAlign=top;childLayout=stackLayout;horizontal=1;startSize=26;horizontalStack=0;resizeParent=1;resizeParentMax=0;resizeLast=0;collapsible=1;marginBottom=0;whiteSpace=wrap;html=1;fillColor=#d80073;fontColor=#ffffff;strokeColor=#A50040;" parent="1" vertex="1">
          <mxGeometry x="331" y="56" width="160" height="199" as="geometry" />
        </mxCell>
        <mxCell id="DPH3KcnIoQbrQOLIOBWx-19" value="&lt;div&gt;# ID: int&lt;br&gt;&lt;/div&gt;&lt;div&gt;# firstname: string&lt;/div&gt;&lt;div&gt;# lastname: string&lt;/div&gt;&lt;div&gt;# email: string&lt;/div&gt;&lt;div&gt;# phonenumber: string&lt;/div&gt;&lt;div&gt;# username: string&lt;br&gt;&lt;/div&gt;&lt;div&gt;# hashedPassword: string&lt;br&gt;&lt;/div&gt;&lt;div&gt;# isValidated: boolean&lt;br&gt;&lt;/div&gt;" style="text;strokeColor=none;fillColor=none;align=left;verticalAlign=top;spacingLeft=4;spacingRight=4;overflow=hidden;rotatable=0;points=[[0,0.5],[1,0.5]];portConstraint=eastwest;whiteSpace=wrap;html=1;" parent="DPH3KcnIoQbrQOLIOBWx-18" vertex="1">
          <mxGeometry y="26" width="160" height="123" as="geometry" />
        </mxCell>
        <mxCell id="DPH3KcnIoQbrQOLIOBWx-20" value="" style="line;strokeWidth=1;fillColor=none;align=left;verticalAlign=middle;spacingTop=-1;spacingLeft=3;spacingRight=3;rotatable=0;labelPosition=right;points=[];portConstraint=eastwest;strokeColor=inherit;" parent="DPH3KcnIoQbrQOLIOBWx-18" vertex="1">
          <mxGeometry y="149" width="160" height="5" as="geometry" />
        </mxCell>
        <mxCell id="DPH3KcnIoQbrQOLIOBWx-21" value="&lt;div&gt;+ method(type): type&lt;/div&gt;&lt;div&gt;&lt;br&gt;&lt;/div&gt;" style="text;strokeColor=none;fillColor=none;align=left;verticalAlign=top;spacingLeft=4;spacingRight=4;overflow=hidden;rotatable=0;points=[[0,0.5],[1,0.5]];portConstraint=eastwest;whiteSpace=wrap;html=1;" parent="DPH3KcnIoQbrQOLIOBWx-18" vertex="1">
          <mxGeometry y="154" width="160" height="45" as="geometry" />
        </mxCell>
        <mxCell id="39GkZZE-7k6Moy8wdUht-2" style="edgeStyle=orthogonalEdgeStyle;rounded=0;orthogonalLoop=1;jettySize=auto;html=1;strokeWidth=3;endArrow=block;endFill=0;" edge="1" parent="1" source="DPH3KcnIoQbrQOLIOBWx-22" target="DPH3KcnIoQbrQOLIOBWx-21">
          <mxGeometry relative="1" as="geometry">
            <mxPoint x="412.5" y="270" as="targetPoint" />
            <Array as="points">
              <mxPoint x="124" y="298" />
              <mxPoint x="426" y="298" />
            </Array>
          </mxGeometry>
        </mxCell>
        <mxCell id="DPH3KcnIoQbrQOLIOBWx-22" value="Patient" style="swimlane;fontStyle=1;align=center;verticalAlign=top;childLayout=stackLayout;horizontal=1;startSize=26;horizontalStack=0;resizeParent=1;resizeParentMax=0;resizeLast=0;collapsible=1;marginBottom=0;whiteSpace=wrap;html=1;fillColor=#d80073;fontColor=#ffffff;strokeColor=#A50040;" parent="1" vertex="1">
          <mxGeometry x="44" y="319" width="189" height="138" as="geometry" />
        </mxCell>
        <mxCell id="DPH3KcnIoQbrQOLIOBWx-23" value="-" style="text;strokeColor=none;fillColor=none;align=left;verticalAlign=top;spacingLeft=4;spacingRight=4;overflow=hidden;rotatable=0;points=[[0,0.5],[1,0.5]];portConstraint=eastwest;whiteSpace=wrap;html=1;" parent="DPH3KcnIoQbrQOLIOBWx-22" vertex="1">
          <mxGeometry y="26" width="189" height="23" as="geometry" />
        </mxCell>
        <mxCell id="DPH3KcnIoQbrQOLIOBWx-24" value="" style="line;strokeWidth=1;fillColor=none;align=left;verticalAlign=middle;spacingTop=-1;spacingLeft=3;spacingRight=3;rotatable=0;labelPosition=right;points=[];portConstraint=eastwest;strokeColor=inherit;" parent="DPH3KcnIoQbrQOLIOBWx-22" vertex="1">
          <mxGeometry y="49" width="189" height="5" as="geometry" />
        </mxCell>
        <mxCell id="DPH3KcnIoQbrQOLIOBWx-25" value="&lt;div&gt;&lt;font size=&quot;1&quot;&gt;+hasPendingVisits(DoctorID):boolean&lt;/font&gt;&lt;/div&gt;&lt;div&gt;&lt;font size=&quot;1&quot;&gt;+ newVisit(AppoinmentID) : none&lt;br&gt;&lt;/font&gt;&lt;/div&gt;&lt;div&gt;&lt;font size=&quot;1&quot;&gt;+ updateVisit(&lt;/font&gt;&lt;font size=&quot;1&quot;&gt;AppoinmentID): none&lt;br&gt;&lt;/font&gt;&lt;/div&gt;&lt;div&gt;&lt;font size=&quot;1&quot;&gt;+ hadVisits(DoctorID) : boolean&lt;br&gt;&lt;/font&gt;&lt;/div&gt;&lt;div style=&quot;font-size: 9px;&quot;&gt;+ &lt;u&gt;GetStatus&lt;/u&gt;&lt;span&gt;&lt;span lang=&quot;EN&quot;&gt;Prescription&lt;/span&gt;&lt;/span&gt;(&lt;span&gt;&lt;span lang=&quot;EN&quot;&gt;P&lt;/span&gt;&lt;/span&gt;&lt;span&gt;&lt;span lang=&quot;EN&quot;&gt;rescription&lt;/span&gt;&lt;/span&gt;I&lt;span&gt;D)&lt;/span&gt;&lt;/div&gt;" style="text;strokeColor=none;fillColor=none;align=left;verticalAlign=top;spacingLeft=4;spacingRight=4;overflow=hidden;rotatable=0;points=[[0,0.5],[1,0.5]];portConstraint=eastwest;whiteSpace=wrap;html=1;" parent="DPH3KcnIoQbrQOLIOBWx-22" vertex="1">
          <mxGeometry y="54" width="189" height="84" as="geometry" />
        </mxCell>
        <mxCell id="DPH3KcnIoQbrQOLIOBWx-27" value="Paramedic" style="swimlane;fontStyle=1;align=center;verticalAlign=top;childLayout=stackLayout;horizontal=1;startSize=26;horizontalStack=0;resizeParent=1;resizeParentMax=0;resizeLast=0;collapsible=1;marginBottom=0;whiteSpace=wrap;html=1;fillColor=#d80073;fontColor=#ffffff;strokeColor=#A50040;" parent="1" vertex="1">
          <mxGeometry x="624" y="319" width="160" height="144" as="geometry" />
        </mxCell>
        <mxCell id="DPH3KcnIoQbrQOLIOBWx-28" value="+ field: type" style="text;strokeColor=none;fillColor=none;align=left;verticalAlign=top;spacingLeft=4;spacingRight=4;overflow=hidden;rotatable=0;points=[[0,0.5],[1,0.5]];portConstraint=eastwest;whiteSpace=wrap;html=1;" parent="DPH3KcnIoQbrQOLIOBWx-27" vertex="1">
          <mxGeometry y="26" width="160" height="60" as="geometry" />
        </mxCell>
        <mxCell id="DPH3KcnIoQbrQOLIOBWx-29" value="" style="line;strokeWidth=1;fillColor=none;align=left;verticalAlign=middle;spacingTop=-1;spacingLeft=3;spacingRight=3;rotatable=0;labelPosition=right;points=[];portConstraint=eastwest;strokeColor=inherit;" parent="DPH3KcnIoQbrQOLIOBWx-27" vertex="1">
          <mxGeometry y="86" width="160" height="5" as="geometry" />
        </mxCell>
        <mxCell id="DPH3KcnIoQbrQOLIOBWx-30" value="&lt;div&gt;+ method(type): type&lt;/div&gt;&lt;div&gt;&lt;br&gt;&lt;/div&gt;" style="text;strokeColor=none;fillColor=none;align=left;verticalAlign=top;spacingLeft=4;spacingRight=4;overflow=hidden;rotatable=0;points=[[0,0.5],[1,0.5]];portConstraint=eastwest;whiteSpace=wrap;html=1;" parent="DPH3KcnIoQbrQOLIOBWx-27" vertex="1">
          <mxGeometry y="91" width="160" height="53" as="geometry" />
        </mxCell>
        <mxCell id="DPH3KcnIoQbrQOLIOBWx-31" value="Doctor" style="swimlane;fontStyle=1;align=center;verticalAlign=top;childLayout=stackLayout;horizontal=1;startSize=26;horizontalStack=0;resizeParent=1;resizeParentMax=0;resizeLast=0;collapsible=1;marginBottom=0;whiteSpace=wrap;html=1;fillColor=#d80073;fontColor=#ffffff;strokeColor=#A50040;" parent="1" vertex="1">
          <mxGeometry x="331" y="319" width="160" height="109" as="geometry" />
        </mxCell>
        <mxCell id="DPH3KcnIoQbrQOLIOBWx-32" value="-" style="text;strokeColor=none;fillColor=none;align=left;verticalAlign=top;spacingLeft=4;spacingRight=4;overflow=hidden;rotatable=0;points=[[0,0.5],[1,0.5]];portConstraint=eastwest;whiteSpace=wrap;html=1;" parent="DPH3KcnIoQbrQOLIOBWx-31" vertex="1">
          <mxGeometry y="26" width="160" height="25" as="geometry" />
        </mxCell>
        <mxCell id="DPH3KcnIoQbrQOLIOBWx-33" value="" style="line;strokeWidth=1;fillColor=none;align=left;verticalAlign=middle;spacingTop=-1;spacingLeft=3;spacingRight=3;rotatable=0;labelPosition=right;points=[];portConstraint=eastwest;strokeColor=inherit;" parent="DPH3KcnIoQbrQOLIOBWx-31" vertex="1">
          <mxGeometry y="51" width="160" height="5" as="geometry" />
        </mxCell>
        <mxCell id="DPH3KcnIoQbrQOLIOBWx-34" value="&lt;div&gt;+ method(type): type&lt;/div&gt;&lt;div&gt;&lt;br&gt;&lt;/div&gt;" style="text;strokeColor=none;fillColor=none;align=left;verticalAlign=top;spacingLeft=4;spacingRight=4;overflow=hidden;rotatable=0;points=[[0,0.5],[1,0.5]];portConstraint=eastwest;whiteSpace=wrap;html=1;" parent="DPH3KcnIoQbrQOLIOBWx-31" vertex="1">
          <mxGeometry y="56" width="160" height="53" as="geometry" />
        </mxCell>
        <mxCell id="DPH3KcnIoQbrQOLIOBWx-38" value="appointment" style="swimlane;fontStyle=1;align=center;verticalAlign=top;childLayout=stackLayout;horizontal=1;startSize=26;horizontalStack=0;resizeParent=1;resizeParentMax=0;resizeLast=0;collapsible=1;marginBottom=0;whiteSpace=wrap;html=1;fillColor=#d80073;fontColor=#ffffff;strokeColor=#A50040;" parent="1" vertex="1">
          <mxGeometry x="331" y="526" width="160" height="144" as="geometry" />
        </mxCell>
        <mxCell id="DPH3KcnIoQbrQOLIOBWx-39" value="+ field: type" style="text;strokeColor=none;fillColor=none;align=left;verticalAlign=top;spacingLeft=4;spacingRight=4;overflow=hidden;rotatable=0;points=[[0,0.5],[1,0.5]];portConstraint=eastwest;whiteSpace=wrap;html=1;" parent="DPH3KcnIoQbrQOLIOBWx-38" vertex="1">
          <mxGeometry y="26" width="160" height="60" as="geometry" />
        </mxCell>
        <mxCell id="DPH3KcnIoQbrQOLIOBWx-40" value="" style="line;strokeWidth=1;fillColor=none;align=left;verticalAlign=middle;spacingTop=-1;spacingLeft=3;spacingRight=3;rotatable=0;labelPosition=right;points=[];portConstraint=eastwest;strokeColor=inherit;" parent="DPH3KcnIoQbrQOLIOBWx-38" vertex="1">
          <mxGeometry y="86" width="160" height="5" as="geometry" />
        </mxCell>
        <mxCell id="DPH3KcnIoQbrQOLIOBWx-41" value="&lt;div&gt;+ method(type): type&lt;/div&gt;&lt;div&gt;&lt;br&gt;&lt;/div&gt;" style="text;strokeColor=none;fillColor=none;align=left;verticalAlign=top;spacingLeft=4;spacingRight=4;overflow=hidden;rotatable=0;points=[[0,0.5],[1,0.5]];portConstraint=eastwest;whiteSpace=wrap;html=1;" parent="DPH3KcnIoQbrQOLIOBWx-38" vertex="1">
          <mxGeometry y="91" width="160" height="53" as="geometry" />
        </mxCell>
        <mxCell id="39GkZZE-7k6Moy8wdUht-1" style="edgeStyle=orthogonalEdgeStyle;rounded=0;orthogonalLoop=1;jettySize=auto;html=1;strokeWidth=3;endArrow=block;endFill=0;entryX=0.483;entryY=1.002;entryDx=0;entryDy=0;entryPerimeter=0;exitX=0.487;exitY=0.005;exitDx=0;exitDy=0;exitPerimeter=0;" edge="1" parent="1" source="DPH3KcnIoQbrQOLIOBWx-31">
          <mxGeometry relative="1" as="geometry">
            <mxPoint x="409.00000000000006" y="317.86" as="sourcePoint" />
            <mxPoint x="408.28000000000003" y="254.00400000000002" as="targetPoint" />
            <Array as="points">
              <mxPoint x="409" y="255" />
              <mxPoint x="408" y="255" />
            </Array>
          </mxGeometry>
        </mxCell>
        <mxCell id="39GkZZE-7k6Moy8wdUht-3" style="edgeStyle=orthogonalEdgeStyle;rounded=0;orthogonalLoop=1;jettySize=auto;html=1;strokeWidth=3;endArrow=block;endFill=0;entryX=0.386;entryY=0.99;entryDx=0;entryDy=0;entryPerimeter=0;" edge="1" parent="1" source="DPH3KcnIoQbrQOLIOBWx-27" target="DPH3KcnIoQbrQOLIOBWx-21">
          <mxGeometry relative="1" as="geometry">
            <mxPoint x="393" y="257" as="targetPoint" />
            <Array as="points">
              <mxPoint x="704" y="298" />
              <mxPoint x="393" y="298" />
            </Array>
          </mxGeometry>
        </mxCell>
        <mxCell id="39GkZZE-7k6Moy8wdUht-6" style="edgeStyle=orthogonalEdgeStyle;rounded=0;orthogonalLoop=1;jettySize=auto;html=1;entryX=0.491;entryY=0.981;entryDx=0;entryDy=0;entryPerimeter=0;endArrow=none;endFill=0;strokeWidth=3;" edge="1" parent="1" source="DPH3KcnIoQbrQOLIOBWx-38" target="DPH3KcnIoQbrQOLIOBWx-25">
          <mxGeometry relative="1" as="geometry">
            <Array as="points">
              <mxPoint x="137" y="592" />
            </Array>
          </mxGeometry>
        </mxCell>
        <mxCell id="39GkZZE-7k6Moy8wdUht-10" value="1" style="edgeLabel;html=1;align=center;verticalAlign=middle;resizable=0;points=[];" vertex="1" connectable="0" parent="39GkZZE-7k6Moy8wdUht-6">
          <mxGeometry x="0.8883" relative="1" as="geometry">
            <mxPoint as="offset" />
          </mxGeometry>
        </mxCell>
        <mxCell id="39GkZZE-7k6Moy8wdUht-8" style="edgeStyle=orthogonalEdgeStyle;rounded=0;orthogonalLoop=1;jettySize=auto;html=1;entryX=0.566;entryY=1.006;entryDx=0;entryDy=0;entryPerimeter=0;strokeWidth=3;endArrow=none;endFill=0;" edge="1" parent="1" source="DPH3KcnIoQbrQOLIOBWx-38" target="DPH3KcnIoQbrQOLIOBWx-30">
          <mxGeometry relative="1" as="geometry">
            <Array as="points">
              <mxPoint x="425" y="494" />
              <mxPoint x="715" y="494" />
            </Array>
          </mxGeometry>
        </mxCell>
        <mxCell id="39GkZZE-7k6Moy8wdUht-9" value="1..*" style="edgeLabel;html=1;align=center;verticalAlign=middle;resizable=0;points=[];" vertex="1" connectable="0" parent="39GkZZE-7k6Moy8wdUht-8">
          <mxGeometry x="-0.8853" y="1" relative="1" as="geometry">
            <mxPoint as="offset" />
          </mxGeometry>
        </mxCell>
        <mxCell id="39GkZZE-7k6Moy8wdUht-12" value="1" style="edgeLabel;html=1;align=center;verticalAlign=middle;resizable=0;points=[];" vertex="1" connectable="0" parent="39GkZZE-7k6Moy8wdUht-8">
          <mxGeometry x="0.9154" y="-1" relative="1" as="geometry">
            <mxPoint x="-2" y="4" as="offset" />
          </mxGeometry>
        </mxCell>
        <mxCell id="39GkZZE-7k6Moy8wdUht-13" style="edgeStyle=orthogonalEdgeStyle;rounded=0;orthogonalLoop=1;jettySize=auto;html=1;entryX=1;entryY=0.5;entryDx=0;entryDy=0;endArrow=none;endFill=0;strokeWidth=3;" edge="1" parent="1" source="DPH3KcnIoQbrQOLIOBWx-32" target="DPH3KcnIoQbrQOLIOBWx-23">
          <mxGeometry relative="1" as="geometry">
            <Array as="points">
              <mxPoint x="268" y="357" />
            </Array>
          </mxGeometry>
        </mxCell>
        <mxCell id="39GkZZE-7k6Moy8wdUht-14" value="Prescription" style="swimlane;fontStyle=1;align=center;verticalAlign=top;childLayout=stackLayout;horizontal=1;startSize=26;horizontalStack=0;resizeParent=1;resizeParentMax=0;resizeLast=0;collapsible=1;marginBottom=0;whiteSpace=wrap;html=1;fillColor=#d80073;fontColor=#ffffff;strokeColor=#A50040;" vertex="1" parent="1">
          <mxGeometry x="331" y="733" width="160" height="144" as="geometry" />
        </mxCell>
        <mxCell id="39GkZZE-7k6Moy8wdUht-15" value="+ field: type" style="text;strokeColor=none;fillColor=none;align=left;verticalAlign=top;spacingLeft=4;spacingRight=4;overflow=hidden;rotatable=0;points=[[0,0.5],[1,0.5]];portConstraint=eastwest;whiteSpace=wrap;html=1;" vertex="1" parent="39GkZZE-7k6Moy8wdUht-14">
          <mxGeometry y="26" width="160" height="60" as="geometry" />
        </mxCell>
        <mxCell id="39GkZZE-7k6Moy8wdUht-16" value="" style="line;strokeWidth=1;fillColor=none;align=left;verticalAlign=middle;spacingTop=-1;spacingLeft=3;spacingRight=3;rotatable=0;labelPosition=right;points=[];portConstraint=eastwest;strokeColor=inherit;" vertex="1" parent="39GkZZE-7k6Moy8wdUht-14">
          <mxGeometry y="86" width="160" height="5" as="geometry" />
        </mxCell>
        <mxCell id="39GkZZE-7k6Moy8wdUht-17" value="&lt;div&gt;+deleteOne(int): none&lt;/div&gt;&lt;div&gt;+ updateone&lt;br&gt;&lt;/div&gt;" style="text;strokeColor=none;fillColor=none;align=left;verticalAlign=top;spacingLeft=4;spacingRight=4;overflow=hidden;rotatable=0;points=[[0,0.5],[1,0.5]];portConstraint=eastwest;whiteSpace=wrap;html=1;" vertex="1" parent="39GkZZE-7k6Moy8wdUht-14">
          <mxGeometry y="91" width="160" height="53" as="geometry" />
        </mxCell>
        <mxCell id="39GkZZE-7k6Moy8wdUht-18" style="edgeStyle=orthogonalEdgeStyle;rounded=0;orthogonalLoop=1;jettySize=auto;html=1;strokeWidth=3;endArrow=none;endFill=0;entryX=0.398;entryY=1.016;entryDx=0;entryDy=0;entryPerimeter=0;" edge="1" parent="1" source="39GkZZE-7k6Moy8wdUht-14" target="DPH3KcnIoQbrQOLIOBWx-25">
          <mxGeometry relative="1" as="geometry">
            <mxPoint x="120" y="467" as="targetPoint" />
            <Array as="points">
              <mxPoint x="119" y="805" />
            </Array>
          </mxGeometry>
        </mxCell>
        <mxCell id="39GkZZE-7k6Moy8wdUht-20" value="1" style="edgeLabel;html=1;align=center;verticalAlign=middle;resizable=0;points=[];" vertex="1" connectable="0" parent="39GkZZE-7k6Moy8wdUht-18">
          <mxGeometry x="0.9334" y="1" relative="1" as="geometry">
            <mxPoint as="offset" />
          </mxGeometry>
        </mxCell>
        <mxCell id="39GkZZE-7k6Moy8wdUht-21" value="0..*" style="edgeLabel;html=1;align=center;verticalAlign=middle;resizable=0;points=[];" vertex="1" connectable="0" parent="39GkZZE-7k6Moy8wdUht-18">
          <mxGeometry x="-0.925" y="-1" relative="1" as="geometry">
            <mxPoint as="offset" />
          </mxGeometry>
        </mxCell>
        <mxCell id="39GkZZE-7k6Moy8wdUht-19" style="edgeStyle=orthogonalEdgeStyle;rounded=0;orthogonalLoop=1;jettySize=auto;html=1;strokeWidth=3;endArrow=none;endFill=0;entryX=0.998;entryY=0.798;entryDx=0;entryDy=0;entryPerimeter=0;" edge="1" parent="1" source="39GkZZE-7k6Moy8wdUht-15" target="DPH3KcnIoQbrQOLIOBWx-32">
          <mxGeometry relative="1" as="geometry">
            <mxPoint x="493" y="371" as="targetPoint" />
            <Array as="points">
              <mxPoint x="526" y="801" />
              <mxPoint x="526" y="371" />
            </Array>
          </mxGeometry>
        </mxCell>
        <mxCell id="39GkZZE-7k6Moy8wdUht-22" value="1" style="edgeLabel;html=1;align=center;verticalAlign=middle;resizable=0;points=[];" vertex="1" connectable="0" parent="39GkZZE-7k6Moy8wdUht-19">
          <mxGeometry x="0.9379" y="1" relative="1" as="geometry">
            <mxPoint as="offset" />
          </mxGeometry>
        </mxCell>
        <mxCell id="39GkZZE-7k6Moy8wdUht-23" value="0..*" style="edgeLabel;html=1;align=center;verticalAlign=middle;resizable=0;points=[];" vertex="1" connectable="0" parent="39GkZZE-7k6Moy8wdUht-19">
          <mxGeometry x="-0.9297" y="-1" relative="1" as="geometry">
            <mxPoint as="offset" />
          </mxGeometry>
        </mxCell>
        <mxCell id="39GkZZE-7k6Moy8wdUht-24" value="Comment" style="swimlane;fontStyle=1;align=center;verticalAlign=top;childLayout=stackLayout;horizontal=1;startSize=26;horizontalStack=0;resizeParent=1;resizeParentMax=0;resizeLast=0;collapsible=1;marginBottom=0;whiteSpace=wrap;html=1;fillColor=#d80073;fontColor=#ffffff;strokeColor=#A50040;" vertex="1" parent="1">
          <mxGeometry x="335" y="936" width="160" height="144" as="geometry" />
        </mxCell>
        <mxCell id="39GkZZE-7k6Moy8wdUht-25" value="+ field: type" style="text;strokeColor=none;fillColor=none;align=left;verticalAlign=top;spacingLeft=4;spacingRight=4;overflow=hidden;rotatable=0;points=[[0,0.5],[1,0.5]];portConstraint=eastwest;whiteSpace=wrap;html=1;" vertex="1" parent="39GkZZE-7k6Moy8wdUht-24">
          <mxGeometry y="26" width="160" height="60" as="geometry" />
        </mxCell>
        <mxCell id="39GkZZE-7k6Moy8wdUht-26" value="" style="line;strokeWidth=1;fillColor=none;align=left;verticalAlign=middle;spacingTop=-1;spacingLeft=3;spacingRight=3;rotatable=0;labelPosition=right;points=[];portConstraint=eastwest;strokeColor=inherit;" vertex="1" parent="39GkZZE-7k6Moy8wdUht-24">
          <mxGeometry y="86" width="160" height="5" as="geometry" />
        </mxCell>
        <mxCell id="39GkZZE-7k6Moy8wdUht-27" value="&lt;div&gt;+ method(type): type&lt;/div&gt;&lt;div&gt;&lt;br&gt;&lt;/div&gt;" style="text;strokeColor=none;fillColor=none;align=left;verticalAlign=top;spacingLeft=4;spacingRight=4;overflow=hidden;rotatable=0;points=[[0,0.5],[1,0.5]];portConstraint=eastwest;whiteSpace=wrap;html=1;" vertex="1" parent="39GkZZE-7k6Moy8wdUht-24">
          <mxGeometry y="91" width="160" height="53" as="geometry" />
        </mxCell>
        <mxCell id="39GkZZE-7k6Moy8wdUht-28" style="edgeStyle=orthogonalEdgeStyle;rounded=0;orthogonalLoop=1;jettySize=auto;html=1;entryX=0.306;entryY=0.988;entryDx=0;entryDy=0;entryPerimeter=0;strokeWidth=3;endArrow=none;endFill=0;" edge="1" parent="1" source="39GkZZE-7k6Moy8wdUht-25" target="DPH3KcnIoQbrQOLIOBWx-25">
          <mxGeometry relative="1" as="geometry" />
        </mxCell>
        <mxCell id="39GkZZE-7k6Moy8wdUht-30" value="&lt;div&gt;0..*&lt;/div&gt;" style="edgeLabel;html=1;align=center;verticalAlign=middle;resizable=0;points=[];" vertex="1" connectable="0" parent="39GkZZE-7k6Moy8wdUht-28">
          <mxGeometry x="-0.9637" y="1" relative="1" as="geometry">
            <mxPoint as="offset" />
          </mxGeometry>
        </mxCell>
        <mxCell id="39GkZZE-7k6Moy8wdUht-31" value="1" style="edgeLabel;html=1;align=center;verticalAlign=middle;resizable=0;points=[];" vertex="1" connectable="0" parent="39GkZZE-7k6Moy8wdUht-28">
          <mxGeometry x="0.9439" y="1" relative="1" as="geometry">
            <mxPoint as="offset" />
          </mxGeometry>
        </mxCell>
        <mxCell id="39GkZZE-7k6Moy8wdUht-29" style="edgeStyle=orthogonalEdgeStyle;rounded=0;orthogonalLoop=1;jettySize=auto;html=1;strokeWidth=3;endArrow=none;endFill=0;entryX=1;entryY=0.5;entryDx=0;entryDy=0;" edge="1" parent="1" target="DPH3KcnIoQbrQOLIOBWx-32">
          <mxGeometry relative="1" as="geometry">
            <mxPoint x="491.0000000000001" y="991.9944134078212" as="sourcePoint" />
            <mxPoint x="492" y="361" as="targetPoint" />
            <Array as="points">
              <mxPoint x="537" y="992" />
              <mxPoint x="537" y="361" />
            </Array>
          </mxGeometry>
        </mxCell>
        <mxCell id="39GkZZE-7k6Moy8wdUht-32" value="0..*" style="edgeLabel;html=1;align=center;verticalAlign=middle;resizable=0;points=[];" vertex="1" connectable="0" parent="39GkZZE-7k6Moy8wdUht-29">
          <mxGeometry x="-0.9252" relative="1" as="geometry">
            <mxPoint as="offset" />
          </mxGeometry>
        </mxCell>
        <mxCell id="39GkZZE-7k6Moy8wdUht-33" value="1" style="edgeLabel;html=1;align=center;verticalAlign=middle;resizable=0;points=[];" vertex="1" connectable="0" parent="39GkZZE-7k6Moy8wdUht-29">
          <mxGeometry x="0.9478" y="-1" relative="1" as="geometry">
            <mxPoint as="offset" />
          </mxGeometry>
        </mxCell>
        <mxCell id="39GkZZE-7k6Moy8wdUht-34" value="PrescriptionDetail" style="swimlane;fontStyle=1;align=center;verticalAlign=top;childLayout=stackLayout;horizontal=1;startSize=26;horizontalStack=0;resizeParent=1;resizeParentMax=0;resizeLast=0;collapsible=1;marginBottom=0;whiteSpace=wrap;html=1;fillColor=#d80073;fontColor=#ffffff;strokeColor=#A50040;" vertex="1" parent="1">
          <mxGeometry x="651" y="733" width="160" height="144" as="geometry" />
        </mxCell>
        <mxCell id="39GkZZE-7k6Moy8wdUht-35" value="&lt;div&gt;+ count: int&lt;/div&gt;&lt;div&gt;+ typr : string&lt;br&gt;&lt;/div&gt;" style="text;strokeColor=none;fillColor=none;align=left;verticalAlign=top;spacingLeft=4;spacingRight=4;overflow=hidden;rotatable=0;points=[[0,0.5],[1,0.5]];portConstraint=eastwest;whiteSpace=wrap;html=1;" vertex="1" parent="39GkZZE-7k6Moy8wdUht-34">
          <mxGeometry y="26" width="160" height="60" as="geometry" />
        </mxCell>
        <mxCell id="39GkZZE-7k6Moy8wdUht-36" value="" style="line;strokeWidth=1;fillColor=none;align=left;verticalAlign=middle;spacingTop=-1;spacingLeft=3;spacingRight=3;rotatable=0;labelPosition=right;points=[];portConstraint=eastwest;strokeColor=inherit;" vertex="1" parent="39GkZZE-7k6Moy8wdUht-34">
          <mxGeometry y="86" width="160" height="5" as="geometry" />
        </mxCell>
        <mxCell id="39GkZZE-7k6Moy8wdUht-37" value="&lt;div&gt;+ method(type): type&lt;/div&gt;&lt;div&gt;&lt;br&gt;&lt;/div&gt;" style="text;strokeColor=none;fillColor=none;align=left;verticalAlign=top;spacingLeft=4;spacingRight=4;overflow=hidden;rotatable=0;points=[[0,0.5],[1,0.5]];portConstraint=eastwest;whiteSpace=wrap;html=1;" vertex="1" parent="39GkZZE-7k6Moy8wdUht-34">
          <mxGeometry y="91" width="160" height="53" as="geometry" />
        </mxCell>
        <mxCell id="39GkZZE-7k6Moy8wdUht-44" value="Pharmacy" style="swimlane;fontStyle=1;align=center;verticalAlign=top;childLayout=stackLayout;horizontal=1;startSize=26;horizontalStack=0;resizeParent=1;resizeParentMax=0;resizeLast=0;collapsible=1;marginBottom=0;whiteSpace=wrap;html=1;fillColor=#d80073;fontColor=#ffffff;strokeColor=#A50040;" vertex="1" parent="1">
          <mxGeometry x="-116" y="526" width="160" height="144" as="geometry" />
        </mxCell>
        <mxCell id="39GkZZE-7k6Moy8wdUht-45" value="+ field: type" style="text;strokeColor=none;fillColor=none;align=left;verticalAlign=top;spacingLeft=4;spacingRight=4;overflow=hidden;rotatable=0;points=[[0,0.5],[1,0.5]];portConstraint=eastwest;whiteSpace=wrap;html=1;" vertex="1" parent="39GkZZE-7k6Moy8wdUht-44">
          <mxGeometry y="26" width="160" height="60" as="geometry" />
        </mxCell>
        <mxCell id="39GkZZE-7k6Moy8wdUht-46" value="" style="line;strokeWidth=1;fillColor=none;align=left;verticalAlign=middle;spacingTop=-1;spacingLeft=3;spacingRight=3;rotatable=0;labelPosition=right;points=[];portConstraint=eastwest;strokeColor=inherit;" vertex="1" parent="39GkZZE-7k6Moy8wdUht-44">
          <mxGeometry y="86" width="160" height="5" as="geometry" />
        </mxCell>
        <mxCell id="39GkZZE-7k6Moy8wdUht-47" value="&lt;div&gt;+deleteOne(int): none&lt;/div&gt;&lt;div&gt;+ updateone&lt;br&gt;&lt;/div&gt;" style="text;strokeColor=none;fillColor=none;align=left;verticalAlign=top;spacingLeft=4;spacingRight=4;overflow=hidden;rotatable=0;points=[[0,0.5],[1,0.5]];portConstraint=eastwest;whiteSpace=wrap;html=1;" vertex="1" parent="39GkZZE-7k6Moy8wdUht-44">
          <mxGeometry y="91" width="160" height="53" as="geometry" />
        </mxCell>
      </root>
    </mxGraphModel>
  </diagram>
</mxfile>
